<svg width="188" height="188" viewBox="0 0 188 188" fill="none" xmlns="http://www.w3.org/2000/svg">
<path d="M188 14V42C188 43.5913 187.368 45.1174 186.243 46.2426C185.117 47.3679 183.591 48 182 48C180.409 48 178.883 47.3679 177.757 46.2426C176.632 45.1174 176 43.5913 176 42V14C176 13.4696 175.789 12.9609 175.414 12.5858C175.039 12.2107 174.53 12 174 12H146C144.409 12 142.883 11.3679 141.757 10.2426C140.632 9.11742 140 7.5913 140 6C140 4.4087 140.632 2.88258 141.757 1.75736C142.883 0.63214 144.409 0 146 0H174C177.713 0 181.274 1.475 183.899 4.10051C186.525 6.72602 188 10.287 188 14ZM182 140C180.409 140 178.883 140.632 177.757 141.757C176.632 142.883 176 144.409 176 146V174C176 174.53 175.789 175.039 175.414 175.414C175.039 175.789 174.53 176 174 176H146C144.409 176 142.883 176.632 141.757 177.757C140.632 178.883 140 180.409 140 182C140 183.591 140.632 185.117 141.757 186.243C142.883 187.368 144.409 188 146 188H174C177.713 188 181.274 186.525 183.899 183.899C186.525 181.274 188 177.713 188 174V146C188 144.409 187.368 142.883 186.243 141.757C185.117 140.632 183.591 140 182 140ZM42 176H14C13.4696 176 12.9609 175.789 12.5858 175.414C12.2107 175.039 12 174.53 12 174V146C12 144.409 11.3679 142.883 10.2426 141.757C9.11742 140.632 7.5913 140 6 140C4.4087 140 2.88258 140.632 1.75736 141.757C0.63214 142.883 0 144.409 0 146V174C0 177.713 1.475 181.274 4.10051 183.899C6.72602 186.525 10.287 188 14 188H42C43.5913 188 45.1174 187.368 46.2426 186.243C47.3679 185.117 48 183.591 48 182C48 180.409 47.3679 178.883 46.2426 177.757C45.1174 176.632 43.5913 176 42 176ZM6 48C7.5913 48 9.11742 47.3679 10.2426 46.2426C11.3679 45.1174 12 43.5913 12 42V14C12 13.4696 12.2107 12.9609 12.5858 12.5858C12.9609 12.2107 13.4696 12 14 12H42C43.5913 12 45.1174 11.3679 46.2426 10.2426C47.3679 9.11742 48 7.5913 48 6C48 4.4087 47.3679 2.88258 46.2426 1.75736C45.1174 0.63214 43.5913 0 42 0H14C10.287 0 6.72602 1.475 4.10051 4.10051C1.475 6.72602 0 10.287 0 14V42C0 43.5913 0.63214 45.1174 1.75736 46.2426C2.88258 47.3679 4.4087 48 6 48ZM141.8 144.8C137.197 136.116 130.315 128.85 121.893 123.782C113.472 118.715 103.829 116.037 94 116.037C84.1713 116.037 74.5283 118.715 66.1067 123.782C57.6851 128.85 50.8032 136.116 46.2 144.8C45.4562 146.205 44.1856 147.257 42.6671 147.725C41.1485 148.194 39.5059 148.041 38.1 147.3C36.7146 146.537 35.6795 145.266 35.2131 143.755C34.7467 142.244 34.8854 140.611 35.6 139.2C43.1437 124.869 55.7147 113.829 70.9 108.2C64.5928 103.371 59.9574 96.6874 57.6453 89.0879C55.3332 81.4885 55.4608 73.3555 58.01 65.8323C60.5592 58.309 65.4019 51.7738 71.8574 47.1452C78.3129 42.5166 86.0566 40.0273 94 40.0273C101.943 40.0273 109.687 42.5166 116.143 47.1452C122.598 51.7738 127.441 58.309 129.99 65.8323C132.539 73.3555 132.667 81.4885 130.355 89.0879C128.043 96.6874 123.407 103.371 117.1 108.2C132.285 113.829 144.856 124.869 152.4 139.2C153.115 140.611 153.253 142.244 152.787 143.755C152.32 145.266 151.285 146.537 149.9 147.3C149.041 147.766 148.077 148.006 147.1 148C146.009 147.999 144.939 147.7 144.005 147.136C143.072 146.573 142.309 145.765 141.8 144.8ZM94 104C99.1423 104 104.169 102.475 108.445 99.6182C112.721 96.7613 116.053 92.7006 118.021 87.9498C119.989 83.1989 120.504 77.9712 119.5 72.9277C118.497 67.8841 116.021 63.2514 112.385 59.6152C108.749 55.9791 104.116 53.5028 99.0723 52.4996C94.0288 51.4964 88.8011 52.0113 84.0502 53.9791C79.2994 55.947 75.2387 59.2795 72.3818 63.5552C69.5249 67.8309 68 72.8577 68 78C68.0263 84.8875 70.7741 91.4854 75.6443 96.3557C80.5146 101.226 87.1125 103.974 94 104Z" fill="#406973"/>
</svg>
